<?xml version="1.0" encoding="UTF-8"?> <svg xmlns="http://www.w3.org/2000/svg" width="112" height="112" viewBox="0 0 112 112" fill="none"><mask id="mask0" maskUnits="userSpaceOnUse" x="0" y="0" width="112" height="112"><rect width="112" height="112" rx="3" fill="white"></rect></mask><g mask="url(#mask0)"><path d="M98.4531 73.5186C98.4531 75.0815 99.7181 76.3674 101.292 76.3674C102.865 76.3674 104.145 75.0815 104.145 73.5186C104.145 71.9478 102.865 70.6621 101.292 70.6621C99.7181 70.6621 98.4531 71.9478 98.4531 73.5186ZM99.1088 73.5186C99.1088 72.2559 100.065 71.2704 101.292 71.2704C102.518 71.2704 103.474 72.2559 103.474 73.5186C103.474 74.7735 102.518 75.7591 101.292 75.7591C100.065 75.7591 99.1088 74.7735 99.1088 73.5186ZM101.754 75.0353H102.564L101.947 73.8496C102.302 73.6957 102.541 73.3645 102.541 72.9564C102.541 72.4021 102.078 71.9555 101.484 71.9555H100.266V75.0353H100.999V73.9651H101.222L101.754 75.0353ZM100.999 73.3645V72.5561H101.353C101.631 72.5561 101.801 72.7102 101.801 72.9642C101.801 73.2106 101.631 73.3645 101.353 73.3645H100.999Z" fill="#222E3A"></path><path d="M96.8175 76.665H93.1673L89.6007 80.5091V70.6621H86.8105V86.9998H89.6007V84.269L90.7547 83.0508L93.4818 86.9998H96.9014L92.6847 81.0132L96.8175 76.665Z" fill="#222E3A"></path><path d="M85.7752 76.6358C85.5681 76.6148 85.3675 76.6358 85.1397 76.6358C84.2704 76.6358 82.8566 76.8456 82.2356 78.2092V76.6358H79.5654V86.9997H82.3184V82.2793C82.3184 80.0555 83.4766 79.2295 84.8842 79.2295C85.1326 79.2295 85.7752 79.2295 85.7752 79.2295V76.6358Z" fill="#222E3A"></path><path d="M68.958 83.9814C68.958 85.5517 70.2904 86.9997 72.4763 86.9997C73.9961 86.9997 74.9745 86.5581 75.4949 85.7627L75.5887 86.9997H78.014V85.3752V80.4401C78.014 78.4211 76.8064 76.6265 73.5588 76.6265C70.8109 76.6265 69.3328 78.3599 69.1662 79.9302L71.6227 80.4401C71.7061 79.5631 72.3722 78.8086 73.5797 78.8086C74.7454 78.8086 75.3076 79.4 75.3076 80.1137C75.3076 80.4604 75.1202 80.4941 74.5373 80.5757L72.0183 80.9428C70.3112 81.1876 68.958 82.1869 68.958 83.9814ZM73.0592 84.9807C72.1641 84.9807 71.7268 84.4097 71.7268 83.8183C71.7268 83.0434 72.289 82.6559 72.9968 82.5539L75.3076 82.2072V82.9076C75.3076 84.6819 74.2251 84.9807 73.0592 84.9807Z" fill="#222E3A"></path><path d="M61.3666 80.9292C61.4288 79.7949 62.1134 78.9127 63.2751 78.9127C64.6027 78.9127 65.1629 79.8159 65.1629 80.9712V86.9998H67.922V80.4881C67.922 78.2194 66.7187 76.6512 64.1256 76.6512C63.1506 76.6512 62.0304 76.7281 61.3666 77.5262V70.6621H58.6074V86.9998H61.3666V80.9292Z" fill="#222E3A"></path><path d="M49.293 84.0166C49.4183 85.1352 50.4638 86.9997 53.5582 86.9997C56.2554 86.9997 57.5726 85.4149 57.5726 83.8169C57.5726 82.3789 56.5481 81.2004 54.52 80.801L53.0564 80.5014C52.4919 80.4015 52.1156 80.1019 52.1156 79.6226C52.1156 79.0632 52.701 78.6438 53.4327 78.6438C54.6036 78.6438 55.0427 79.3828 55.1264 79.9621L57.4471 79.4628C57.3218 78.4042 56.3391 76.6265 53.4118 76.6265C51.1956 76.6265 49.5647 78.0846 49.5647 79.8422C49.5647 81.2204 50.4638 82.3589 52.4501 82.7783L53.8092 83.0779C54.6036 83.2377 54.9172 83.5973 54.9172 84.0367C54.9172 84.556 54.4782 85.0153 53.5582 85.0153C52.3456 85.0153 51.7392 84.2963 51.6765 83.5173L49.293 84.0166Z" fill="#222E3A"></path><path fill-rule="evenodd" clip-rule="evenodd" d="M46.4925 74.7925C46.4922 74.7784 46.4919 74.7642 46.4919 74.7499C46.4919 73.819 47.2449 73.0643 48.1738 73.0643H48.776V70.6621H47.4183C45.3179 70.6621 43.7357 72.2442 43.7357 74.5009V76.637H42.0488V79.2304H43.7357V86.9998H46.4925V79.2304H48.776V76.637H46.4925V74.8022C46.4925 74.7989 46.4925 74.7957 46.4925 74.7925Z" fill="#222E3A"></path><path d="M41.0135 76.6358C40.8065 76.6148 40.6059 76.6358 40.3781 76.6358C39.5088 76.6358 38.0949 76.8456 37.4739 78.2092V76.6358H34.8037V86.9997H37.5568V82.2793C37.5568 80.0555 38.715 79.2295 40.1226 79.2295C40.371 79.2295 41.0135 79.2295 41.0135 79.2295V76.6358Z" fill="#222E3A"></path><path d="M30.7322 86.9997H33.2521V85.1308V76.6265H30.5049V82.674C30.5049 83.8709 29.7625 84.4379 28.5438 84.4379C27.2631 84.4379 26.6847 83.5139 26.6847 82.359V76.6265H23.9375V82.926C23.9375 85.1728 25.3422 86.9997 27.8003 86.9997C28.8744 86.9997 30.0918 86.8527 30.6495 85.8867L30.7322 86.9997Z" fill="#222E3A"></path><path d="M22.6807 74.6654C22.3268 72.9248 20.8667 70.6621 17.0616 70.6621C14.0972 70.6621 11.5973 72.7508 11.5973 75.4922C11.5973 77.8201 13.2123 79.4084 15.7122 79.9088L17.9023 80.344C19.119 80.5832 19.8049 81.5389 19.8049 82.4309C19.8049 83.5187 18.8978 84.3237 17.2608 84.3237C15.0485 84.3237 13.9645 82.953 13.8317 81.4301L11 82.1698C11.2434 84.3672 13.0796 86.9998 17.2386 86.9998C20.8888 86.9998 22.9021 84.6065 22.9021 82.235C22.9021 80.0594 21.3755 77.9725 18.5217 77.4285L16.3316 77.0151C15.1812 76.7975 14.6281 76.1231 14.6281 75.2746C14.6281 74.252 15.6015 73.3164 17.0838 73.3164C19.0748 73.3164 19.7827 74.6436 19.9376 75.4922L22.6807 74.6654Z" fill="#222E3A"></path><path d="M66.7634 20C67.896 20.0292 68.9654 20.0505 69.8283 20.2016C71.6353 20.6554 73.3375 21.6274 74.2225 23.5731C74.2225 23.5731 74.4214 23.919 74.5661 24.916C74.7108 25.9132 74.9305 28.68 74.9305 28.68C75.2335 33.2747 75.2664 38.0537 75.3149 42.557C75.2368 44.3196 74.7389 45.9755 73.984 47.4894C72.1384 51.1906 68.7559 54.0424 66.2127 55.5264C59.9181 58.6871 53.8307 61.5015 48.6778 63.7688C43.2229 65.7849 40.7468 63.7613 39.9257 61.359C39.7597 60.7052 39.702 60.0322 39.7274 59.4104C39.7274 59.4104 39.7776 57.9204 40.1549 55.4729C40.5325 53.0255 43.3134 35.4035 46.3002 26.3699C47.0542 24.2829 49.8646 20.3638 56.5502 20H66.7634Z" fill="#178A9E"></path><path d="M65.7322 28.2461C66.2176 28.2461 66.6112 28.6347 66.6112 29.1141V32.152C66.6112 32.6315 66.2176 33.02 65.7322 33.02H65.2929C62.3807 33.02 60.0197 35.3517 60.0197 38.228V42.8935C60.0197 48.4064 55.4949 52.8754 49.913 52.8754H49.4737C48.9883 52.8754 48.5947 52.4867 48.5947 52.0074V48.9695C48.5947 48.4899 48.9883 48.1015 49.4737 48.1015H49.913C52.8252 48.1015 55.1862 45.7697 55.1862 42.8935V38.228C55.1862 32.7151 59.711 28.2461 65.2929 28.2461H65.7322Z" fill="white"></path></g></svg> 