<?xml version="1.0" encoding="UTF-8"?> <svg xmlns="http://www.w3.org/2000/svg" id="Layer_1" data-name="Layer 1" viewBox="0 0 112 112"> <defs> <style>.cls-1{fill:#4687ff;}.cls-2{fill:#151922;}</style> </defs> <title>NordVPN new SVG</title> <path class="cls-1" d="M28.19,67.45a32.93,32.93,0,1,1,53.33,0L65.7,41.72l-1.53,2.59,1.55,7.18L54.85,32.86,48.13,44.23l1.57,7.26L44,41.74Z"></path> <path class="cls-2" d="M19.45,96.66h3.29V81.15H19.55V91.27L12.77,81.15H9.08V96.66h3.19V86Zm5.18-5.27a5.64,5.64,0,0,1,5.85-5.54,5.55,5.55,0,0,1,5.78,5.48,5.64,5.64,0,0,1-5.82,5.57A5.56,5.56,0,0,1,24.63,91.39Zm3.19,0a2.63,2.63,0,1,0,2.62-2.69A2.61,2.61,0,0,0,27.82,91.35Zm16.59-5.26a3.78,3.78,0,0,0-.83-.12,2.87,2.87,0,0,0-2.75,1.66h0V86.09H37.84V96.66h3V92c0-2,1-3,2.53-3a5.44,5.44,0,0,1,1,.08Zm8.76,10.57V95.31h0a3.85,3.85,0,0,1-3.31,1.55c-3.09,0-5.06-2.65-5.06-5.51a5.35,5.35,0,0,1,5.1-5.46,4.16,4.16,0,0,1,3.19,1.4h0V80.54h3.09V96.66Zm0-5.31a2.63,2.63,0,1,0-2.63,2.72A2.59,2.59,0,0,0,53.17,91.35Zm9.77,5.31h3.73l5.66-15.51H68.9L64.84,92.94,60.79,81.15H57.3ZM85.19,86.12c0,3.43-2.43,5.08-5.7,5.08H77v5.46H73.81V81.15h5.8C82.74,81.15,85.19,82.84,85.19,86.12ZM82,86.2c0-1.5-1.28-2-2.62-2H77v4h2.31C80.63,88.2,82,87.65,82,86.2ZM97.34,96.66h3.29V81.15H97.44V91.27L90.66,81.15H87V96.66h3.19V86Zm6.54-12.21a1.63,1.63,0,1,1,1.62-1.63A1.63,1.63,0,0,1,103.88,84.45Zm0-3a1.33,1.33,0,1,0,1.32,1.33A1.32,1.32,0,0,0,103.88,81.49Zm-.25,1.59v.67h-.38V81.89H104a.59.59,0,0,1,.67.58.55.55,0,0,1-.36.54l.39.74h-.42l-.34-.67Zm.63-.59c0-.19-.16-.23-.31-.23h-.32v.46H104C104.1,82.72,104.26,82.66,104.26,82.49Z"></path> </svg> 